# xmcd
#
# Track frame offsets:
#	150
#	19320
#	38577
#	58040
#	76802
#	92482
#	116437
#	131907
#	150504
#	166797
#	181109
#	197619
#	217004
#	235529
#
# Disc length: 3414 seconds
#
# Revision: 0
# Processed by: cddbd v1.5.1PL2 Copyright (c) Steve Scherf et al.
# Submitted via: dBpowerAMP V4.0
#
DISCID=a60d540e
DTITLE=Johnny Madsen - En nat på jorden
DYEAR=1900
DGENRE=
TTITLE0=En nat på jorden
TTITLE1=Johnny the blues
TTITLE2=Griseriet på Bounty
TTITLE3=Udenfor sæsonen
TTITLE4=Ses vi i Slesvig
TTITLE5=One mand band
TTITLE6=En at bli' som
TTITLE7=Færgemanden
TTITLE8=Langerhus blues
TTITLE9=Jim og Joe
TTITLE10=Havanna
TTITLE11=Send et postkort
TTITLE12=Den rejsendes dag
TTITLE13=Halgal halbal (live)
EXTD=
EXTT0=
EXTT1=
EXTT2=
EXTT3=
EXTT4=
EXTT5=
EXTT6=
EXTT7=
EXTT8=
EXTT9=
EXTT10=
EXTT11=
EXTT12=
EXTT13=
PLAYORDER=
